#!OML:ASF F:\VICON\USERDATA\INSTALL\rory3\rory3.ASF
:FULLY-SPECIFIED
:DEGREES
425
root 3.92747 16.6132 0.243968 13.2509 1.25351 1.4142
lowerback 4.19827 -0.759786 4.83001
upperback 1.609 -0.855334 -3.25095
thorax -0.81363 -0.412491 -6.0539
lowerneck -8.02741 5.86637 2.02092
upperneck 52.1296 8.94108 1.08118
head 24.1778 3.79619 2.06591
rclavicle 0 -4.37326e-015
rhumerus -37.9007 21.3596 -91.8827
rradius 101.816
rwrist -52.885
rhand 1.08079 -36.9717
rfingers 7.12502
rthumb 26.6252 -65.1196
lclavicle 0 -4.37326e-015
lhumerus -3.68452 -12.4441 73.5489
lradius 95.3857
lwrist 61.8357
lhand -21.334 -22.179
lfingers 7.12502
lthumb 5.05185 7.74073
rfemur -59.6571 6.28688 15.9857
rtibia 79.7205
rfoot 13.8528 -3.74264
rtoes -21.9675
lfemur -35.0131 -2.96058 -29.9925
ltibia 46.3628
lfoot -22.15 14.091
ltoes 9.88663
426
root 3.91507 16.6093 0.242002 13.2551 0.995025 1.28235
lowerback 4.21205 -0.618712 4.83933
upperback 1.63514 -0.665745 -3.20735
thorax -0.767163 -0.31533 -6.02312
lowerneck -7.98042 5.92418 2.14311
upperneck 52.1275 9.06589 0.965626
head 24.1898 3.85761 2.00207
rclavicle -7.95139e-016 -3.97569e-016
rhumerus -38.0898 21.216 -92.2796
rradius 101.721
rwrist -52.8609
rhand -0.36715 -33.4058
rfingers 7.12502
rthumb 25.2387 -61.7566
lclavicle -7.95139e-016 -3.97569e-016
lhumerus -4.13332 -12.601 73.9736
lradius 95.4584
lwrist 62.135
lhand -22.0939 -23.3027
lfingers 7.12502
lthumb 4.31806 6.63327
rfemur -59.7419 6.64923 16.0754
rtibia 79.7272
rfoot 13.9244 -3.73199
rtoes -21.9496
lfemur -35.1918 -2.95092 -29.8353
ltibia 46.5368
lfoot -22.1115 14.5204
ltoes 9.38605
427
root 3.90404 16.5942 0.239902 13.2333 0.798781 1.22545
lowerback 4.24349 -0.563298 4.8084
upperback 1.70302 -0.591458 -3.17061
thorax -0.703532 -0.274478 -5.97045
lowerneck -8.06022 6.00196 2.07902
upperneck 52.2525 9.17847 1.0704
head 24.3419 3.88797 2.11235
rclavicle -9.74045e-015 -2.38542e-015
rhumerus -38.2485 21.2128 -92.7088
rradius 101.697
rwrist -52.7651
rhand -0.275551 -34.0178
rfingers 7.12502
rthumb 25.3264 -62.3562
lclavicle -9.74045e-015 -2.38542e-015
lhumerus -4.59364 -12.5772 74.3821
lradius 95.5087
lwrist 62.4772
lhand -23.3656 -24.6072
lfingers 7.12502
lthumb 3.09002 5.35017
rfemur -59.8309 6.90752 16.1041
rtibia 79.8065
rfoot 14.0293 -3.54519
rtoes -22.1081
lfemur -35.3841 -3.0223 -29.756
ltibia 46.7385
lfoot -21.9244 15.0646
ltoes 8.66392
428
root 3.89377 16.5808 0.240749 13.2021 0.712698 1.22278
lowerback 4.36855 -0.398283 4.86345
upperback 1.62296 -0.365177 -3.24484
thorax -0.825305 -0.166636 -6.09169
lowerneck -7.903 5.90393 2.12713
upperneck 52.4094 8.88893 1.34616
head 24.4095 3.82371 2.20389
rclavicle 5.76476e-015 1.35174e-014
rhumerus -38.6468 20.6843 -93.1808
rradius 101.594
rwrist -52.7307
rhand -0.229039 -33.6984
rfingers 7.12502
rthumb 25.371 -62.0305
lclavicle 5.76476e-015 1.35174e-014
lhumerus -5.12956 -13.1078 74.8247
lradius 95.5355
lwrist 62.9073
lhand -23.6501 -24.8942
lfingers 7.12502
lthumb 2.81524 5.06698
rfemur -59.863 7.03801 16.1093
rtibia 79.8956
rfoot 14.0877 -3.20051
rtoes -23.0469
lfemur -35.4987 -3.20027 -29.6963
ltibia 46.9113
lfoot -21.8115 15.4825
ltoes 8.27976
429
root 3.88822 16.5737 0.244748 13.2398 0.646189 1.2523
lowerback 4.33702 -0.262322 4.93938
upperback 1.63296 -0.18229 -3.28428
thorax -0.771446 -0.0726817 -6.18642
lowerneck -7.91911 5.8496 2.13409
upperneck 52.4766 8.79677 1.39158
head 24.4879 3.79739 2.21891
rclavicle -3.18055e-015 -1.27222e-014
rhumerus -38.7055 20.3679 -93.4946
rradius 101.305
rwrist -52.7614
rhand -0.267699 -32.7294
rfingers 7.12502
rthumb 25.3339 -61.0668
lclavicle -3.18055e-015 -1.27222e-014
lhumerus -5.37589 -13.5026 75.2521
lradius 95.4234
lwrist 63.345
lhand -22.9663 -24.1039
lfingers 7.12502
lthumb 3.47564 5.84747
rfemur -59.9442 7.09149 16.0527
rtibia 79.9681
rfoot 14.1651 -2.81053
rtoes -24.3
lfemur -35.576 -3.41558 -29.6922
ltibia 47.0214
lfoot -21.751 15.8784
ltoes 8.12073
430
root 3.89027 16.5751 0.255243 13.2454 0.696424 1.36477
lowerback 3.82128 -0.169158 5.04775
upperback 1.92918 -0.0745377 -3.34408
thorax -0.160407 0.00998161 -6.31551
lowerneck -8.05228 5.84401 2.34023
upperneck 52.409 8.84372 1.16306
head 24.5354 3.83427 2.06675
rclavicle 1.98785e-016 3.97569e-015
rhumerus -38.3719 20.2048 -93.7059
rradius 100.986
rwrist -52.7379
rhand 0.134674 -34.5957
rfingers 7.12502
rthumb 25.7194 -62.8779
lclavicle 1.98785e-016 3.97569e-015
lhumerus -5.46708 -13.7338 75.6586
lradius 95.3944
lwrist 63.7036
lhand -21.8338 -22.6541
lfingers 7.12502
lthumb 4.5693 7.27664
rfemur -59.8785 6.97573 15.8909
rtibia 79.9928
rfoot 14.1273 -2.67002
rtoes -24.1426
lfemur -35.4635 -3.79639 -29.7815
ltibia 47.0553
lfoot -21.8055 16.2038
ltoes 8.49405
431
root 3.8925 16.5753 0.265561 13.1895 0.827526 1.43786
lowerback 4.06851 -0.163689 5.16607
upperback 1.67676 -0.0532012 -3.37182
thorax -0.556669 0.00126943 -6.41497
lowerneck -7.48924 5.87393 2.51894
upperneck 52.5305 8.86323 1.1572
head 24.4427 3.89346 2.00664
rclavicle 9.93923e-016 6.36111e-015
rhumerus -39.163 20.069 -94.3146
rradius 100.904
rwrist -52.8169
rhand -0.295656 -34.5363
rfingers 7.12502
rthumb 25.3072 -62.8774
lclavicle 9.93923e-016 6.36111e-015
lhumerus -6.73349 -14.0463 76.2472
lradius 95.6678
lwrist 63.9483
lhand -20.7811 -21.6999
lfingers 7.12502
lthumb 5.58568 8.20648
rfemur -59.7062 6.82018 15.8011
rtibia 79.9883
rfoot 14.0352 -2.7502
rtoes -23.5362
lfemur -35.2751 -4.17513 -29.8232
ltibia 47.0704
lfoot -21.9137 16.382
ltoes 9.00414
432
root 3.89135 16.5716 0.27165 13.183 0.890431 1.43714
lowerback 3.94842 -0.0881538 5.34446
upperback 1.59419 0.0489516 -3.41838
thorax -0.558829 0.0508974 -6.57142
lowerneck -7.03819 5.83081 2.45201
upperneck 52.5676 8.60684 1.5746
head 24.2051 3.84751 2.17477
rclavicle -1.78906e-015 -2.78299e-015
rhumerus -39.7707 19.7816 -94.8451
rradius 100.877
rwrist -52.9017
rhand 0.550415 -36.321
rfingers 7.12502
rthumb 26.1175 -64.545
lclavicle -1.78906e-015 -2.78299e-015
lhumerus -7.55459 -14.4768 76.6608
lradius 95.8163
lwrist 64.2318
lhand -20.4582 -21.7865
lfingers 7.12502
lthumb 5.89745 8.11138
rfemur -59.668 6.77219 15.7849
rtibia 79.9988
rfoot 14.0709 -2.74209
rtoes -23.559
lfemur -35.232 -4.40154 -29.7973
ltibia 47.0983
lfoot -21.9447 16.5371
ltoes 9.19378
433
root 3.88887 16.5695 0.275455 13.2193 0.826892 1.47749
lowerback 3.83201 -0.166631 5.31907
upperback 1.72522 -0.0612825 -3.34102
thorax -0.374968 0.0052598 -6.46929
lowerneck -7.19794 6.00229 2.06882
upperneck 52.5403 8.85944 1.84609
head 24.1529 3.88714 2.4562
rclavicle 2.38542e-015 -1.23246e-014
rhumerus -39.6429 20.2669 -95.1213
rradius 100.609
rwrist -52.9221
rhand 1.72105 -41.8649
rfingers 7.12502
rthumb 27.2378 -69.9182
lclavicle 2.38542e-015 -1.23246e-014
lhumerus -7.9167 -14.2434 76.9566
lradius 95.8069
lwrist 64.5224
lhand -20.2015 -22.4081
lfingers 7.12502
lthumb 6.14533 7.48275
rfemur -59.766 6.82028 15.6892
rtibia 80.0249
rfoot 14.1011 -2.51354
rtoes -23.8802
lfemur -35.2901 -4.59339 -29.8149
ltibia 47.1495
lfoot -21.9375 16.7691
ltoes 9.30174
434
root 3.88469 16.5633 0.275258 13.2197 0.694632 1.5773
lowerback 3.86216 -0.180848 5.24297
upperback 1.80775 -0.08158 -3.31287
thorax -0.309631 -0.000877627 -6.39478
lowerneck -7.18533 6.16962 2.10119
upperneck 52.4282 9.24647 1.59044
head 24.0651 4.01459 2.37313
rclavicle -4.47266e-015 -1.78906e-014
rhumerus -39.4612 20.647 -95.3642
rradius 100.233
rwrist -53.043
rhand 1.81981 -42.2109
rfingers 7.12502
rthumb 27.3323 -70.2493
lclavicle -4.47266e-015 -1.78906e-014
lhumerus -8.29743 -14.2046 77.2494
lradius 95.8359
lwrist 64.8748
lhand -19.8861 -22.605
lfingers 7.12502
lthumb 6.44975 7.27678
rfemur -59.9029 6.90255 15.5437
rtibia 80.0963
rfoot 14.2053 -2.09948
rtoes -24.262
lfemur -35.3584 -4.73118 -29.9008
ltibia 47.2059
lfoot -21.8668 17.0226
ltoes 9.21223
435
root 3.88011 16.5572 0.273084 13.191 0.607746 1.63454
lowerback 3.95651 -0.175768 5.24326
upperback 1.90574 -0.0708695 -3.2959
thorax -0.259348 0.0088644 -6.37761
lowerneck -7.32563 6.288 2.1105
upperneck 52.4252 9.53411 1.42136
head 24.1531 4.09979 2.34611
rclavicle 1.19271e-015 7.55382e-015
rhumerus -39.3324 20.8186 -95.6016
rradius 99.9879
rwrist -53.2034
rhand 0.434388 -36.1893
rfingers 7.12502
rthumb 26.0064 -64.4296
lclavicle 1.19271e-015 7.55382e-015
lhumerus -8.60517 -14.2676 77.5204
lradius 95.928
lwrist 65.3141
lhand -19.8146 -22.3637
lfingers 7.12502
lthumb 6.51878 7.51599
rfemur -59.9825 6.9727 15.4739
rtibia 80.1794
rfoot 14.4492 -1.81255
rtoes -24.2232
lfemur -35.3833 -4.86714 -29.9381
ltibia 47.2423
lfoot -21.7253 17.2972
ltoes 9.03463
436
root 3.87589 16.557 0.271895 13.178 0.666457 1.81113
lowerback 3.93809 -0.0819072 5.24825
upperback 1.88224 0.0531932 -3.40637
thorax -0.254392 0.0711961 -6.50267
lowerneck -7.204 6.18743 1.9936
upperneck 52.5978 9.22235 1.83495
head 24.2091 4.00642 2.54511
rclavicle -3.18055e-015 1.39149e-014
rhumerus -39.6683 20.4445 -96.0233
rradius 99.917
rwrist -53.1387
rhand 0.623273 -39.9919
rfingers 7.12502
rthumb 26.1872 -68.2055
lclavicle -3.18055e-015 1.39149e-014
lhumerus -9.24833 -14.8119 77.887
lradius 96.0912
lwrist 65.7177
lhand -19.8041 -22.3721
lfingers 7.12502
lthumb 6.52894 7.5073
rfemur -60.0304 6.88368 15.3042
rtibia 80.2569
rfoot 14.6107 -1.7921
rtoes -23.8787
lfemur -35.3471 -5.168 -30.0692
ltibia 47.2606
lfoot -21.6757 17.5116
ltoes 9.26827
437
root 3.86879 16.5531 0.271026 13.23 0.780005 2.14004
lowerback 3.95783 -0.0601858 5.02858
upperback 1.85013 0.0746675 -3.50674
thorax -0.296178 0.078898 -6.48348
lowerneck -7.2091 6.12044 1.79141
upperneck 52.7092 9.0171 2.18252
head 24.2567 3.92527 2.74897
rclavicle 4.57205e-015 -1.90833e-014
rhumerus -39.9187 20.2804 -96.4342
rradius 99.7933
rwrist -53.1512
rhand -0.939897 -36.1262
rfingers 7.12502
rthumb 24.6898 -64.5533
lclavicle 4.57205e-015 -1.90833e-014
lhumerus -9.77258 -15.2581 78.2324
lradius 96.1259
lwrist 66.0989
lhand -19.9851 -22.6506
lfingers 7.12502
lthumb 6.35423 7.23408
rfemur -60.1766 6.6958 14.9954
rtibia 80.3785
rfoot 14.6203 -1.78404
rtoes -23.8711
lfemur -35.3845 -5.47116 -30.3477
ltibia 47.2801
lfoot -21.6727 17.6238
ltoes 9.51012
